<?xml version="1.0" encoding="UTF-8" standalone="no"?>
<!DOCTYPE svg PUBLIC "-//W3C//DTD SVG 1.1//EN"
 "http://www.w3.org/Graphics/SVG/1.1/DTD/svg11.dtd">
<!-- Generated by graphviz version 9.0.0 (20230911.1827)
 -->
<!-- Title: render Pages: 1 -->
<svg width="349pt" height="451pt"
 viewBox="0.00 0.00 348.88 450.50" xmlns="http://www.w3.org/2000/svg" xmlns:xlink="http://www.w3.org/1999/xlink">
<g id="graph0" class="graph" transform="scale(1 1) rotate(0) translate(4 446.5)">
<title>render</title>
<polygon fill="white" stroke="none" points="-4,4 -4,-446.5 344.88,-446.5 344.88,4 -4,4"/>
<!-- root//1//1//1//2//safe&#45;robot//1//1 -->
<g id="node1" class="node">
<title>root//1//1//1//2//safe&#45;robot//1//1</title>
<polygon fill="#e5e5e5" stroke="none" points="107.88,-420 107.88,-442.5 253.38,-442.5 253.38,-420 107.88,-420"/>
<polygon fill="none" stroke="black" points="107.88,-420 107.88,-442.5 253.38,-442.5 253.38,-420 107.88,-420"/>
<text text-anchor="start" x="110.88" y="-427.2" font-family="Times,serif" font-weight="bold" font-size="14.00">GuaranteePowerSupply</text>
</g>
<!-- root//1//1//1//2//safe&#45;robot//1//1//1 -->
<g id="node2" class="node">
<title>root//1//1//1//2//safe&#45;robot//1//1//1</title>
<polygon fill="#e5e5e5" stroke="none" points="82,-345 82,-367.5 279.25,-367.5 279.25,-345 82,-345"/>
<polygon fill="none" stroke="black" points="82,-345 82,-367.5 279.25,-367.5 279.25,-345 82,-345"/>
<text text-anchor="start" x="85" y="-352.2" font-family="Times,serif" font-weight="bold" font-size="14.00">PostconditionPreconditionAction</text>
</g>
<!-- root//1//1//1//2//safe&#45;robot//1//1&#45;&gt;root//1//1//1//2//safe&#45;robot//1//1//1 -->
<g id="edge8" class="edge">
<title>root//1//1//1//2//safe&#45;robot//1//1&#45;&gt;root//1//1//1//2//safe&#45;robot//1//1//1</title>
<path fill="none" stroke="black" d="M180.62,-420.1C180.62,-409.42 180.62,-392.3 180.62,-378.62"/>
<polygon fill="black" stroke="black" points="184.13,-378.83 180.63,-368.83 177.13,-378.83 184.13,-378.83"/>
<text text-anchor="middle" x="184" y="-388.7" font-family="Times,serif" font-size="14.00">1</text>
</g>
<!-- root//1//1//1//2//safe&#45;robot//1//1//1//postcondition -->
<g id="node3" class="node">
<title>root//1//1//1//2//safe&#45;robot//1//1//1//postcondition</title>
<polygon fill="#e5e5e5" stroke="none" points="64.5,-270 64.5,-292.5 150.75,-292.5 150.75,-270 64.5,-270"/>
<polygon fill="none" stroke="black" points="64.5,-270 64.5,-292.5 150.75,-292.5 150.75,-270 64.5,-270"/>
<text text-anchor="start" x="67.5" y="-277.2" font-family="Times,serif" font-weight="bold" font-size="14.00">FallbackNode</text>
</g>
<!-- root//1//1//1//2//safe&#45;robot//1//1//1&#45;&gt;root//1//1//1//2//safe&#45;robot//1//1//1//postcondition -->
<g id="edge6" class="edge">
<title>root//1//1//1//2//safe&#45;robot//1//1//1&#45;&gt;root//1//1//1//2//safe&#45;robot//1//1//1//postcondition</title>
<path fill="none" stroke="black" d="M170.47,-345.1C158.92,-333.55 139.84,-314.46 125.72,-300.35"/>
<polygon fill="black" stroke="black" points="128.31,-297.98 118.76,-293.38 123.36,-302.93 128.31,-297.98"/>
<text text-anchor="middle" x="188.38" y="-313.7" font-family="Times,serif" font-size="14.00">postcondition</text>
</g>
<!-- root//1//1//1//2//safe&#45;robot//1//1//1//actions.0 -->
<g id="node9" class="node">
<title>root//1//1//1//2//safe&#45;robot//1//1//1//actions.0</title>
<polygon fill="#e5e5e5" stroke="none" points="168.38,-270 168.38,-292.5 340.88,-292.5 340.88,-270 168.38,-270"/>
<polygon fill="none" stroke="black" points="168.38,-270 168.38,-292.5 340.88,-292.5 340.88,-270 168.38,-270"/>
<text text-anchor="start" x="171.38" y="-277.2" font-family="Times,serif" font-weight="bold" font-size="14.00">MoveTowardsChargingArea</text>
</g>
<!-- root//1//1//1//2//safe&#45;robot//1//1//1&#45;&gt;root//1//1//1//2//safe&#45;robot//1//1//1//actions.0 -->
<g id="edge7" class="edge">
<title>root//1//1//1//2//safe&#45;robot//1//1//1&#45;&gt;root//1//1//1//2//safe&#45;robot//1//1//1//actions.0</title>
<path fill="none" stroke="black" d="M203.31,-345C211.93,-340.36 221.4,-334.27 228.62,-327 235.51,-320.08 241.23,-310.97 245.54,-302.79"/>
<polygon fill="black" stroke="black" points="248.66,-304.37 249.85,-293.84 242.36,-301.33 248.66,-304.37"/>
<text text-anchor="middle" x="266" y="-313.7" font-family="Times,serif" font-size="14.00">actions.0</text>
</g>
<!-- root//1//1//1//2//safe&#45;robot//1//1//1//postcondition//children.0 -->
<g id="node4" class="node">
<title>root//1//1//1//2//safe&#45;robot//1//1//1//postcondition//children.0</title>
<polygon fill="#e5e5e5" stroke="none" points="0,-195 0,-217.5 137.25,-217.5 137.25,-195 0,-195"/>
<polygon fill="none" stroke="black" points="0,-195 0,-217.5 137.25,-217.5 137.25,-195 0,-195"/>
<text text-anchor="start" x="3" y="-202.2" font-family="Times,serif" font-weight="bold" font-size="14.00">BatteryLevelIsAtLeast</text>
<polygon fill="none" stroke="black" points="0,-172.5 0,-195 137.25,-195 137.25,-172.5 0,-172.5"/>
<text text-anchor="start" x="3" y="-179.7" font-family="Times,serif" font-style="italic" font-size="14.00">threshold</text>
<text text-anchor="start" x="54" y="-179.7" font-family="Times,serif" font-size="14.00">=100.0</text>
</g>
<!-- root//1//1//1//2//safe&#45;robot//1//1//1//postcondition&#45;&gt;root//1//1//1//2//safe&#45;robot//1//1//1//postcondition//children.0 -->
<g id="edge1" class="edge">
<title>root//1//1//1//2//safe&#45;robot//1//1//1//postcondition&#45;&gt;root//1//1//1//2//safe&#45;robot//1//1//1//postcondition//children.0</title>
<path fill="none" stroke="black" d="M103,-270.25C98.11,-259.7 90.16,-242.52 83.14,-227.35"/>
<polygon fill="black" stroke="black" points="86.48,-226.24 79.1,-218.64 80.13,-229.18 86.48,-226.24"/>
<text text-anchor="middle" x="122" y="-238.7" font-family="Times,serif" font-size="14.00">children.0</text>
</g>
<!-- root//1//1//1//2//safe&#45;robot//1//1//1//postcondition//children.1 -->
<g id="node5" class="node">
<title>root//1//1//1//2//safe&#45;robot//1//1//1//postcondition//children.1</title>
<polygon fill="#e5e5e5" stroke="none" points="155.62,-183.75 155.62,-206.25 245.62,-206.25 245.62,-183.75 155.62,-183.75"/>
<polygon fill="none" stroke="black" points="155.62,-183.75 155.62,-206.25 245.62,-206.25 245.62,-183.75 155.62,-183.75"/>
<text text-anchor="start" x="158.62" y="-190.95" font-family="Times,serif" font-weight="bold" font-size="14.00">SequenceNode</text>
</g>
<!-- root//1//1//1//2//safe&#45;robot//1//1//1//postcondition&#45;&gt;root//1//1//1//2//safe&#45;robot//1//1//1//postcondition//children.1 -->
<g id="edge5" class="edge">
<title>root//1//1//1//2//safe&#45;robot//1//1//1//postcondition&#45;&gt;root//1//1//1//2//safe&#45;robot//1//1//1//postcondition//children.1</title>
<path fill="none" stroke="black" d="M125.98,-270.05C134.2,-265.1 143.79,-258.76 151.62,-252 164.62,-240.8 177.32,-226.15 186.53,-214.64"/>
<polygon fill="black" stroke="black" points="189.06,-217.09 192.45,-207.05 183.54,-212.79 189.06,-217.09"/>
<text text-anchor="middle" x="196" y="-238.7" font-family="Times,serif" font-size="14.00">children.1</text>
</g>
<!-- root//1//1//1//2//safe&#45;robot//1//1//1//postcondition//children.1//children.0 -->
<g id="node6" class="node">
<title>root//1//1//1//2//safe&#45;robot//1//1//1//postcondition//children.1//children.0</title>
<polygon fill="#e5e5e5" stroke="none" points="132.12,-86.25 132.12,-108.75 159.12,-108.75 159.12,-86.25 132.12,-86.25"/>
<polygon fill="none" stroke="black" points="132.12,-86.25 132.12,-108.75 159.12,-108.75 159.12,-86.25 132.12,-86.25"/>
<text text-anchor="start" x="135.12" y="-93.45" font-family="Times,serif" font-weight="bold" font-size="14.00">Not</text>
</g>
<!-- root//1//1//1//2//safe&#45;robot//1//1//1//postcondition//children.1&#45;&gt;root//1//1//1//2//safe&#45;robot//1//1//1//postcondition//children.1//children.0 -->
<g id="edge3" class="edge">
<title>root//1//1//1//2//safe&#45;robot//1//1//1//postcondition//children.1&#45;&gt;root//1//1//1//2//safe&#45;robot//1//1//1//postcondition//children.1//children.0</title>
<path fill="none" stroke="black" d="M187.78,-183.85C179.3,-176.53 168.57,-165.94 161.88,-154.5 155.64,-143.83 151.65,-130.61 149.19,-119.69"/>
<polygon fill="black" stroke="black" points="152.67,-119.22 147.31,-110.08 145.8,-120.57 152.67,-119.22"/>
<text text-anchor="middle" x="190" y="-141.2" font-family="Times,serif" font-size="14.00">children.0</text>
</g>
<!-- root//1//1//1//2//safe&#45;robot//1//1//1//postcondition//children.1//children.1 -->
<g id="node8" class="node">
<title>root//1//1//1//2//safe&#45;robot//1//1//1//postcondition//children.1//children.1</title>
<polygon fill="#e5e5e5" stroke="none" points="177,-97.5 177,-120 314.25,-120 314.25,-97.5 177,-97.5"/>
<polygon fill="none" stroke="black" points="177,-97.5 177,-120 314.25,-120 314.25,-97.5 177,-97.5"/>
<text text-anchor="start" x="180" y="-104.7" font-family="Times,serif" font-weight="bold" font-size="14.00">BatteryLevelIsAtLeast</text>
<polygon fill="none" stroke="black" points="177,-75 177,-97.5 314.25,-97.5 314.25,-75 177,-75"/>
<text text-anchor="start" x="180" y="-82.2" font-family="Times,serif" font-style="italic" font-size="14.00">threshold</text>
<text text-anchor="start" x="231" y="-82.2" font-family="Times,serif" font-size="14.00">=20.0</text>
</g>
<!-- root//1//1//1//2//safe&#45;robot//1//1//1//postcondition//children.1&#45;&gt;root//1//1//1//2//safe&#45;robot//1//1//1//postcondition//children.1//children.1 -->
<g id="edge4" class="edge">
<title>root//1//1//1//2//safe&#45;robot//1//1//1//postcondition//children.1&#45;&gt;root//1//1//1//2//safe&#45;robot//1//1//1//postcondition//children.1//children.1</title>
<path fill="none" stroke="black" d="M205.44,-183.78C211.46,-171.01 222.03,-148.57 230.83,-129.91"/>
<polygon fill="black" stroke="black" points="233.88,-131.65 234.97,-121.11 227.54,-128.66 233.88,-131.65"/>
<text text-anchor="middle" x="254" y="-141.2" font-family="Times,serif" font-size="14.00">children.1</text>
</g>
<!-- root//1//1//1//2//safe&#45;robot//1//1//1//postcondition//children.1//children.0//child -->
<g id="node7" class="node">
<title>root//1//1//1//2//safe&#45;robot//1//1//1//postcondition//children.1//children.0//child</title>
<polygon fill="#e5e5e5" stroke="none" points="94.62,0 94.62,-22.5 196.62,-22.5 196.62,0 94.62,0"/>
<polygon fill="none" stroke="black" points="94.62,0 94.62,-22.5 196.62,-22.5 196.62,0 94.62,0"/>
<text text-anchor="start" x="97.62" y="-7.2" font-family="Times,serif" font-weight="bold" font-size="14.00">InChargingArea</text>
</g>
<!-- root//1//1//1//2//safe&#45;robot//1//1//1//postcondition//children.1//children.0&#45;&gt;root//1//1//1//2//safe&#45;robot//1//1//1//postcondition//children.1//children.0//child -->
<g id="edge2" class="edge">
<title>root//1//1//1//2//safe&#45;robot//1//1//1//postcondition//children.1//children.0&#45;&gt;root//1//1//1//2//safe&#45;robot//1//1//1//postcondition//children.1//children.0//child</title>
<path fill="none" stroke="black" d="M145.62,-86.5C145.62,-73.53 145.62,-50.53 145.62,-33.56"/>
<polygon fill="black" stroke="black" points="149.13,-34.01 145.63,-24.01 142.13,-34.01 149.13,-34.01"/>
<text text-anchor="middle" x="159.12" y="-43.7" font-family="Times,serif" font-size="14.00">child</text>
</g>
</g>
</svg>
