<?xml version="1.0" encoding="UTF-8" standalone="no"?>
<!DOCTYPE svg PUBLIC "-//W3C//DTD SVG 1.1//EN"
 "http://www.w3.org/Graphics/SVG/1.1/DTD/svg11.dtd">
<!-- Generated by graphviz version 9.0.0 (20230911.1827)
 -->
<!-- Title: render Pages: 1 -->
<svg width="266pt" height="203pt"
 viewBox="0.00 0.00 266.00 203.00" xmlns="http://www.w3.org/2000/svg" xmlns:xlink="http://www.w3.org/1999/xlink">
<g id="graph0" class="graph" transform="scale(1 1) rotate(0) translate(4 199)">
<title>render</title>
<polygon fill="white" stroke="none" points="-4,4 -4,-199 262,-199 262,4 -4,4"/>
<!-- root//1//1//1//2//safe&#45;robot -->
<g id="node1" class="node">
<title>root//1//1//1//2//safe&#45;robot</title>
<polygon fill="#e5e5e5" stroke="none" points="108.75,-172.5 108.75,-195 174.75,-195 174.75,-172.5 108.75,-172.5"/>
<polygon fill="none" stroke="black" points="108.75,-172.5 108.75,-195 174.75,-195 174.75,-172.5 108.75,-172.5"/>
<text text-anchor="start" x="111.75" y="-179.7" font-family="Times,serif" font-weight="bold" font-size="14.00">SafeRobot</text>
</g>
<!-- root//1//1//1//2//safe&#45;robot//1 -->
<g id="node2" class="node">
<title>root//1//1//1//2//safe&#45;robot//1</title>
<polygon fill="#e5e5e5" stroke="none" points="82.5,-97.5 82.5,-120 201,-120 201,-97.5 82.5,-97.5"/>
<polygon fill="none" stroke="black" points="82.5,-97.5 82.5,-120 201,-120 201,-97.5 82.5,-97.5"/>
<text text-anchor="start" x="85.5" y="-104.7" font-family="Times,serif" font-weight="bold" font-size="14.00">PreconditionAction</text>
</g>
<!-- root//1//1//1//2//safe&#45;robot&#45;&gt;root//1//1//1//2//safe&#45;robot//1 -->
<g id="edge3" class="edge">
<title>root//1//1//1//2//safe&#45;robot&#45;&gt;root//1//1//1//2//safe&#45;robot//1</title>
<path fill="none" stroke="black" d="M141.75,-172.6C141.75,-161.92 141.75,-144.8 141.75,-131.12"/>
<polygon fill="black" stroke="black" points="145.25,-131.33 141.75,-121.33 138.25,-131.33 145.25,-131.33"/>
<text text-anchor="middle" x="145.12" y="-141.2" font-family="Times,serif" font-size="14.00">1</text>
</g>
<!-- root//1//1//1//2//safe&#45;robot//1//precondition -->
<g id="node3" class="node">
<title>root//1//1//1//2//safe&#45;robot//1//precondition</title>
<polygon fill="#e5e5e5" stroke="none" points="0,-11.25 0,-33.75 145.5,-33.75 145.5,-11.25 0,-11.25"/>
<polygon fill="none" stroke="black" points="0,-11.25 0,-33.75 145.5,-33.75 145.5,-11.25 0,-11.25"/>
<text text-anchor="start" x="3" y="-18.45" font-family="Times,serif" font-weight="bold" font-size="14.00">GuaranteePowerSupply</text>
</g>
<!-- root//1//1//1//2//safe&#45;robot//1&#45;&gt;root//1//1//1//2//safe&#45;robot//1//precondition -->
<g id="edge1" class="edge">
<title>root//1//1//1//2//safe&#45;robot//1&#45;&gt;root//1//1//1//2//safe&#45;robot//1//precondition</title>
<path fill="none" stroke="black" d="M133.56,-97.75C122.42,-84.15 102.26,-59.53 88.22,-42.38"/>
<polygon fill="black" stroke="black" points="91.14,-40.43 82.1,-34.92 85.73,-44.87 91.14,-40.43"/>
<text text-anchor="middle" x="151.88" y="-66.2" font-family="Times,serif" font-size="14.00">precondition</text>
</g>
<!-- root//1//1//1//2//safe&#45;robot//1//action -->
<g id="node4" class="node">
<title>root//1//1//1//2//safe&#45;robot//1//action</title>
<polygon fill="#e5e5e5" stroke="none" points="163.5,-22.5 163.5,-45 258,-45 258,-22.5 163.5,-22.5"/>
<polygon fill="none" stroke="black" points="163.5,-22.5 163.5,-45 258,-45 258,-22.5 163.5,-22.5"/>
<text text-anchor="start" x="169.12" y="-29.7" font-family="Times,serif" font-weight="bold" font-size="14.00">MoveTowards</text>
<polygon fill="none" stroke="black" points="163.5,0 163.5,-22.5 258,-22.5 258,0 163.5,0"/>
<text text-anchor="start" x="166.5" y="-7.2" font-family="Times,serif" font-style="italic" font-size="14.00">destination</text>
<text text-anchor="start" x="226.5" y="-7.2" font-family="Times,serif" font-size="14.00">=100</text>
</g>
<!-- root//1//1//1//2//safe&#45;robot//1&#45;&gt;root//1//1//1//2//safe&#45;robot//1//action -->
<g id="edge2" class="edge">
<title>root//1//1//1//2//safe&#45;robot//1&#45;&gt;root//1//1//1//2//safe&#45;robot//1//action</title>
<path fill="none" stroke="black" d="M165.02,-97.69C173.4,-93.14 182.36,-87.06 188.75,-79.5 194.57,-72.62 198.96,-64.03 202.23,-55.65"/>
<polygon fill="black" stroke="black" points="205.48,-56.95 205.41,-46.36 198.86,-54.68 205.48,-56.95"/>
<text text-anchor="middle" x="214.25" y="-66.2" font-family="Times,serif" font-size="14.00">action</text>
</g>
</g>
</svg>
