<?xml version="1.0" encoding="UTF-8" standalone="no"?>
<!DOCTYPE svg PUBLIC "-//W3C//DTD SVG 1.1//EN"
 "http://www.w3.org/Graphics/SVG/1.1/DTD/svg11.dtd">
<!-- Generated by graphviz version 9.0.0 (20230911.1827)
 -->
<!-- Title: render Pages: 1 -->
<svg width="103pt" height="128pt"
 viewBox="0.00 0.00 102.50 128.00" xmlns="http://www.w3.org/2000/svg" xmlns:xlink="http://www.w3.org/1999/xlink">
<g id="graph0" class="graph" transform="scale(1 1) rotate(0) translate(4 124)">
<title>render</title>
<polygon fill="white" stroke="none" points="-4,4 -4,-124 98.5,-124 98.5,4 -4,4"/>
<!-- root//1//1//1//2//safe&#45;robot -->
<g id="node1" class="node">
<title>root//1//1//1//2//safe&#45;robot</title>
<polygon fill="#e5e5e5" stroke="none" points="14.25,-97.5 14.25,-120 80.25,-120 80.25,-97.5 14.25,-97.5"/>
<polygon fill="none" stroke="black" points="14.25,-97.5 14.25,-120 80.25,-120 80.25,-97.5 14.25,-97.5"/>
<text text-anchor="start" x="17.25" y="-104.7" font-family="Times,serif" font-weight="bold" font-size="14.00">SafeRobot</text>
</g>
<!-- root//1//1//1//2//safe&#45;robot//task -->
<g id="node2" class="node">
<title>root//1//1//1//2//safe&#45;robot//task</title>
<polygon fill="#e5e5e5" stroke="none" points="0,-22.5 0,-45 94.5,-45 94.5,-22.5 0,-22.5"/>
<polygon fill="none" stroke="black" points="0,-22.5 0,-45 94.5,-45 94.5,-22.5 0,-22.5"/>
<text text-anchor="start" x="5.62" y="-29.7" font-family="Times,serif" font-weight="bold" font-size="14.00">MoveTowards</text>
<polygon fill="none" stroke="black" points="0,0 0,-22.5 94.5,-22.5 94.5,0 0,0"/>
<text text-anchor="start" x="3" y="-7.2" font-family="Times,serif" font-style="italic" font-size="14.00">destination</text>
<text text-anchor="start" x="63" y="-7.2" font-family="Times,serif" font-size="14.00">=100</text>
</g>
<!-- root//1//1//1//2//safe&#45;robot&#45;&gt;root//1//1//1//2//safe&#45;robot//task -->
<g id="edge1" class="edge">
<title>root//1//1//1//2//safe&#45;robot&#45;&gt;root//1//1//1//2//safe&#45;robot//task</title>
<path fill="none" stroke="black" d="M47.25,-97.75C47.25,-87.51 47.25,-71.01 47.25,-56.16"/>
<polygon fill="black" stroke="black" points="50.75,-56.28 47.25,-46.28 43.75,-56.28 50.75,-56.28"/>
<text text-anchor="middle" x="58.12" y="-66.2" font-family="Times,serif" font-size="14.00">task</text>
</g>
</g>
</svg>
