<?xml version="1.0" encoding="UTF-8" standalone="no"?>
<!DOCTYPE svg PUBLIC "-//W3C//DTD SVG 1.1//EN"
 "http://www.w3.org/Graphics/SVG/1.1/DTD/svg11.dtd">
<!-- Generated by graphviz version 9.0.0 (20230911.1827)
 -->
<!-- Title: render Pages: 1 -->
<svg width="786pt" height="1133pt"
 viewBox="0.00 0.00 785.61 1133.00" xmlns="http://www.w3.org/2000/svg" xmlns:xlink="http://www.w3.org/1999/xlink">
<g id="graph0" class="graph" transform="scale(1 1) rotate(0) translate(4 1129)">
<title>render</title>
<polygon fill="white" stroke="none" points="-4,4 -4,-1129 781.61,-1129 781.61,4 -4,4"/>
<!-- root -->
<g id="node1" class="node">
<title>root</title>
<polygon fill="#e5e5e5" stroke="none" points="351.5,-1102.5 351.5,-1125 493.25,-1125 493.25,-1102.5 351.5,-1102.5"/>
<polygon fill="none" stroke="black" points="351.5,-1102.5 351.5,-1125 493.25,-1125 493.25,-1102.5 351.5,-1102.5"/>
<text text-anchor="start" x="354.5" y="-1109.7" font-family="Times,serif" font-weight="bold" font-size="14.00">ExternalFunctionProps</text>
</g>
<!-- root//1 -->
<g id="node2" class="node">
<title>root//1</title>
<polygon fill="#e5e5e5" stroke="none" points="292.25,-1027.5 292.25,-1050 552.5,-1050 552.5,-1027.5 292.25,-1027.5"/>
<polygon fill="none" stroke="black" points="292.25,-1027.5 292.25,-1050 552.5,-1050 552.5,-1027.5 292.25,-1027.5"/>
<text text-anchor="start" x="375.5" y="-1034.7" font-family="Times,serif" font-weight="bold" font-size="14.00">RobotSimulator</text>
<polygon fill="none" stroke="black" points="292.25,-1005 292.25,-1027.5 552.5,-1027.5 552.5,-1005 292.25,-1005"/>
<text text-anchor="start" x="295.25" y="-1012.2" font-family="Times,serif" font-style="italic" font-size="14.00">robot_state</text>
<text text-anchor="start" x="356.75" y="-1012.2" font-family="Times,serif" font-size="14.00">=RobotState(battery_level=19, [...]</text>
</g>
<!-- root&#45;&gt;root//1 -->
<g id="edge27" class="edge">
<title>root&#45;&gt;root//1</title>
<path fill="none" stroke="black" d="M422.38,-1102.75C422.38,-1092.51 422.38,-1076.01 422.38,-1061.16"/>
<polygon fill="black" stroke="black" points="425.88,-1061.28 422.38,-1051.28 418.88,-1061.28 425.88,-1061.28"/>
<text text-anchor="middle" x="425.75" y="-1071.2" font-family="Times,serif" font-size="14.00">1</text>
</g>
<!-- root//1//1 -->
<g id="node3" class="node">
<title>root//1//1</title>
<polygon fill="#e5e5e5" stroke="none" points="344.75,-930 344.75,-952.5 500,-952.5 500,-930 344.75,-930"/>
<polygon fill="none" stroke="black" points="344.75,-930 344.75,-952.5 500,-952.5 500,-930 344.75,-930"/>
<text text-anchor="start" x="347.75" y="-937.2" font-family="Times,serif" font-weight="bold" font-size="14.00">OrderedCaptureProvider</text>
<polygon fill="none" stroke="black" points="344.75,-907.5 344.75,-930 500,-930 500,-907.5 344.75,-907.5"/>
<text text-anchor="start" x="347.75" y="-914.7" font-family="Times,serif" font-style="italic" font-size="14.00">capture_key</text>
<text text-anchor="start" x="413.75" y="-914.7" font-family="Times,serif" font-size="14.00">=[...]</text>
</g>
<!-- root//1&#45;&gt;root//1//1 -->
<g id="edge26" class="edge">
<title>root//1&#45;&gt;root//1//1</title>
<path fill="none" stroke="black" d="M422.38,-1005.31C422.38,-993.15 422.38,-977.63 422.38,-963.92"/>
<polygon fill="black" stroke="black" points="425.88,-963.98 422.38,-953.98 418.88,-963.98 425.88,-963.98"/>
<text text-anchor="middle" x="425.75" y="-973.7" font-family="Times,serif" font-size="14.00">1</text>
</g>
<!-- root//1//1//1 -->
<g id="node4" class="node">
<title>root//1//1//1</title>
<polygon fill="#e5e5e5" stroke="none" points="338.38,-832.5 338.38,-855 506.38,-855 506.38,-832.5 338.38,-832.5"/>
<polygon fill="none" stroke="black" points="338.38,-832.5 338.38,-855 506.38,-855 506.38,-832.5 338.38,-832.5"/>
<text text-anchor="start" x="341.38" y="-839.7" font-family="Times,serif" font-weight="bold" font-size="14.00">UnorderedCaptureProvider</text>
<polygon fill="none" stroke="black" points="338.38,-810 338.38,-832.5 506.38,-832.5 506.38,-810 338.38,-810"/>
<text text-anchor="start" x="341.38" y="-817.2" font-family="Times,serif" font-style="italic" font-size="14.00">capture_key</text>
<text text-anchor="start" x="407.38" y="-817.2" font-family="Times,serif" font-size="14.00">=[...]</text>
</g>
<!-- root//1//1&#45;&gt;root//1//1//1 -->
<g id="edge25" class="edge">
<title>root//1//1&#45;&gt;root//1//1//1</title>
<path fill="none" stroke="black" d="M422.38,-907.81C422.38,-895.65 422.38,-880.13 422.38,-866.42"/>
<polygon fill="black" stroke="black" points="425.88,-866.48 422.38,-856.48 418.88,-866.48 425.88,-866.48"/>
<text text-anchor="middle" x="425.75" y="-876.2" font-family="Times,serif" font-size="14.00">1</text>
</g>
<!-- root//1//1//1//2 -->
<g id="node5" class="node">
<title>root//1//1//1//2</title>
<polygon fill="#e5e5e5" stroke="none" points="189.25,-735 189.25,-757.5 449.5,-757.5 449.5,-735 189.25,-735"/>
<polygon fill="none" stroke="black" points="189.25,-735 189.25,-757.5 449.5,-757.5 449.5,-735 189.25,-735"/>
<text text-anchor="start" x="253.38" y="-742.2" font-family="Times,serif" font-weight="bold" font-size="14.00">RobotContextProvider</text>
<polygon fill="none" stroke="black" points="189.25,-712.5 189.25,-735 449.5,-735 449.5,-712.5 189.25,-712.5"/>
<text text-anchor="start" x="192.25" y="-719.7" font-family="Times,serif" font-style="italic" font-size="14.00">robot_state</text>
<text text-anchor="start" x="253.75" y="-719.7" font-family="Times,serif" font-size="14.00">=RobotState(battery_level=19, [...]</text>
</g>
<!-- root//1//1//1&#45;&gt;root//1//1//1//2 -->
<g id="edge21" class="edge">
<title>root//1//1//1&#45;&gt;root//1//1//1//2</title>
<path fill="none" stroke="black" d="M399.26,-810.07C384.95,-796.8 366.38,-779.58 350.75,-765.09"/>
<polygon fill="black" stroke="black" points="353.24,-762.62 343.52,-758.39 348.48,-767.76 353.24,-762.62"/>
<text text-anchor="middle" x="379.75" y="-778.7" font-family="Times,serif" font-size="14.00">2</text>
</g>
<!-- root//1//1//1//__CaptureRoot.Consumer -->
<g id="node22" class="node">
<title>root//1//1//1//__CaptureRoot.Consumer</title>
<polygon fill="#e5e5e5" stroke="none" points="468,-723.75 468,-746.25 582.75,-746.25 582.75,-723.75 468,-723.75"/>
<polygon fill="none" stroke="black" points="468,-723.75 468,-746.25 582.75,-746.25 582.75,-723.75 468,-723.75"/>
<text text-anchor="start" x="471" y="-730.95" font-family="Times,serif" font-weight="bold" font-size="14.00">CaptureConsumer</text>
</g>
<!-- root//1//1//1&#45;&gt;root//1//1//1//__CaptureRoot.Consumer -->
<g id="edge24" class="edge">
<title>root//1//1//1&#45;&gt;root//1//1//1//__CaptureRoot.Consumer</title>
<path fill="none" stroke="black" d="M445.49,-810.07C463.77,-793.12 489,-769.73 506.18,-753.8"/>
<polygon fill="black" stroke="black" points="508.29,-756.62 513.24,-747.25 503.53,-751.48 508.29,-756.62"/>
<text text-anchor="middle" x="550.62" y="-778.7" font-family="Times,serif" font-size="14.00">__CaptureRoot.Consumer</text>
</g>
<!-- root//1//1//1//2//__ContextProvider.Value.BatteryLevelContext -->
<g id="node6" class="node">
<title>root//1//1//1//2//__ContextProvider.Value.BatteryLevelContext</title>
<polygon fill="#e5e5e5" stroke="none" points="0,-637.5 0,-660 84.75,-660 84.75,-637.5 0,-637.5"/>
<polygon fill="none" stroke="black" points="0,-637.5 0,-660 84.75,-660 84.75,-637.5 0,-637.5"/>
<text text-anchor="start" x="3" y="-644.7" font-family="Times,serif" font-weight="bold" font-size="14.00">ContextValue</text>
<polygon fill="none" stroke="black" points="0,-615 0,-637.5 84.75,-637.5 84.75,-615 0,-615"/>
<text text-anchor="start" x="3" y="-622.2" font-family="Times,serif" font-style="italic" font-size="14.00">value</text>
<text text-anchor="start" x="32.25" y="-622.2" font-family="Times,serif" font-size="14.00">=19</text>
</g>
<!-- root//1//1//1//2&#45;&gt;root//1//1//1//2//__ContextProvider.Value.BatteryLevelContext -->
<g id="edge1" class="edge">
<title>root//1//1//1//2&#45;&gt;root//1//1//1//2//__ContextProvider.Value.BatteryLevelContext</title>
<path fill="none" stroke="black" d="M189.27,-726.39C135.86,-720.79 81.87,-711.13 61.88,-694.5 54.7,-688.53 50.16,-679.76 47.29,-670.92"/>
<polygon fill="black" stroke="black" points="50.71,-670.19 44.85,-661.37 43.93,-671.92 50.71,-670.19"/>
<text text-anchor="middle" x="189.12" y="-681.2" font-family="Times,serif" font-size="14.00">__ContextProvider.Value.BatteryLevelContext</text>
</g>
<!-- root//1//1//1//2//__ContextProvider.Value.PositionContext -->
<g id="node7" class="node">
<title>root//1//1//1//2//__ContextProvider.Value.PositionContext</title>
<polygon fill="#e5e5e5" stroke="none" points="277,-637.5 277,-660 361.75,-660 361.75,-637.5 277,-637.5"/>
<polygon fill="none" stroke="black" points="277,-637.5 277,-660 361.75,-660 361.75,-637.5 277,-637.5"/>
<text text-anchor="start" x="280" y="-644.7" font-family="Times,serif" font-weight="bold" font-size="14.00">ContextValue</text>
<polygon fill="none" stroke="black" points="277,-615 277,-637.5 361.75,-637.5 361.75,-615 277,-615"/>
<text text-anchor="start" x="280" y="-622.2" font-family="Times,serif" font-style="italic" font-size="14.00">value</text>
<text text-anchor="start" x="309.25" y="-622.2" font-family="Times,serif" font-size="14.00">=50</text>
</g>
<!-- root//1//1//1//2&#45;&gt;root//1//1//1//2//__ContextProvider.Value.PositionContext -->
<g id="edge2" class="edge">
<title>root//1//1//1//2&#45;&gt;root//1//1//1//2//__ContextProvider.Value.PositionContext</title>
<path fill="none" stroke="black" d="M319.38,-712.81C319.38,-700.65 319.38,-685.13 319.38,-671.42"/>
<polygon fill="black" stroke="black" points="322.88,-671.48 319.38,-661.48 315.88,-671.48 322.88,-671.48"/>
<text text-anchor="middle" x="433" y="-681.2" font-family="Times,serif" font-size="14.00">__ContextProvider.Value.PositionContext</text>
</g>
<!-- root//1//1//1//2//safe&#45;robot -->
<g id="node8" class="node">
<title>root//1//1//1//2//safe&#45;robot</title>
<polygon fill="#e5e5e5" stroke="none" points="536.38,-626.25 536.38,-648.75 602.38,-648.75 602.38,-626.25 536.38,-626.25"/>
<polygon fill="none" stroke="black" points="536.38,-626.25 536.38,-648.75 602.38,-648.75 602.38,-626.25 536.38,-626.25"/>
<text text-anchor="start" x="539.38" y="-633.45" font-family="Times,serif" font-weight="bold" font-size="14.00">SafeRobot</text>
</g>
<!-- root//1//1//1//2&#45;&gt;root//1//1//1//2//safe&#45;robot -->
<g id="edge20" class="edge">
<title>root//1//1//1//2&#45;&gt;root//1//1//1//2//safe&#45;robot</title>
<path fill="none" stroke="black" d="M449.21,-714.15C498.04,-706.2 542.98,-698.09 547.38,-694.5 557.94,-685.89 563.45,-671.5 566.31,-659.47"/>
<polygon fill="black" stroke="black" points="569.68,-660.48 568.1,-650.01 562.81,-659.18 569.68,-660.48"/>
<text text-anchor="middle" x="585.75" y="-681.2" font-family="Times,serif" font-size="14.00">safe&#45;robot</text>
</g>
<!-- root//1//1//1//2//safe&#45;robot//1 -->
<g id="node9" class="node">
<title>root//1//1//1//2//safe&#45;robot//1</title>
<polygon fill="#e5e5e5" stroke="none" points="510.12,-540 510.12,-562.5 628.62,-562.5 628.62,-540 510.12,-540"/>
<polygon fill="none" stroke="black" points="510.12,-540 510.12,-562.5 628.62,-562.5 628.62,-540 510.12,-540"/>
<text text-anchor="start" x="513.12" y="-547.2" font-family="Times,serif" font-weight="bold" font-size="14.00">PreconditionAction</text>
</g>
<!-- root//1//1//1//2//safe&#45;robot&#45;&gt;root//1//1//1//2//safe&#45;robot//1 -->
<g id="edge19" class="edge">
<title>root//1//1//1//2//safe&#45;robot&#45;&gt;root//1//1//1//2//safe&#45;robot//1</title>
<path fill="none" stroke="black" d="M569.38,-626.5C569.38,-613.53 569.38,-590.53 569.38,-573.56"/>
<polygon fill="black" stroke="black" points="572.88,-574.01 569.38,-564.01 565.88,-574.01 572.88,-574.01"/>
<text text-anchor="middle" x="572.75" y="-583.7" font-family="Times,serif" font-size="14.00">1</text>
</g>
<!-- root//1//1//1//2//safe&#45;robot//1//1 -->
<g id="node10" class="node">
<title>root//1//1//1//2//safe&#45;robot//1//1</title>
<polygon fill="#e5e5e5" stroke="none" points="468.62,-453.75 468.62,-476.25 614.12,-476.25 614.12,-453.75 468.62,-453.75"/>
<polygon fill="none" stroke="black" points="468.62,-453.75 468.62,-476.25 614.12,-476.25 614.12,-453.75 468.62,-453.75"/>
<text text-anchor="start" x="471.62" y="-460.95" font-family="Times,serif" font-weight="bold" font-size="14.00">GuaranteePowerSupply</text>
</g>
<!-- root//1//1//1//2//safe&#45;robot//1&#45;&gt;root//1//1//1//2//safe&#45;robot//1//1 -->
<g id="edge15" class="edge">
<title>root//1//1//1//2//safe&#45;robot//1&#45;&gt;root//1//1//1//2//safe&#45;robot//1//1</title>
<path fill="none" stroke="black" d="M561.62,-540.03C558.07,-534.87 554.1,-528.37 551.62,-522 547.35,-511.01 544.83,-498.1 543.36,-487.45"/>
<polygon fill="black" stroke="black" points="546.87,-487.27 542.25,-477.73 539.91,-488.07 546.87,-487.27"/>
<text text-anchor="middle" x="554.75" y="-508.7" font-family="Times,serif" font-size="14.00">1</text>
</g>
<!-- root//1//1//1//2//safe&#45;robot//1//2 -->
<g id="node20" class="node">
<title>root//1//1//1//2//safe&#45;robot//1//2</title>
<polygon fill="#e5e5e5" stroke="none" points="643.12,-465 643.12,-487.5 737.62,-487.5 737.62,-465 643.12,-465"/>
<polygon fill="none" stroke="black" points="643.12,-465 643.12,-487.5 737.62,-487.5 737.62,-465 643.12,-465"/>
<text text-anchor="start" x="648.75" y="-472.2" font-family="Times,serif" font-weight="bold" font-size="14.00">MoveTowards</text>
<polygon fill="none" stroke="black" points="643.12,-442.5 643.12,-465 737.62,-465 737.62,-442.5 643.12,-442.5"/>
<text text-anchor="start" x="646.12" y="-449.7" font-family="Times,serif" font-style="italic" font-size="14.00">destination</text>
<text text-anchor="start" x="706.12" y="-449.7" font-family="Times,serif" font-size="14.00">=100</text>
</g>
<!-- root//1//1//1//2//safe&#45;robot//1&#45;&gt;root//1//1//1//2//safe&#45;robot//1//2 -->
<g id="edge18" class="edge">
<title>root//1//1//1//2//safe&#45;robot//1&#45;&gt;root//1//1//1//2//safe&#45;robot//1//2</title>
<path fill="none" stroke="black" d="M577.75,-540.09C586.11,-530.37 599.71,-515.71 613.62,-505.5 619.94,-500.87 626.87,-496.48 633.91,-492.43"/>
<polygon fill="black" stroke="black" points="635.13,-495.75 642.19,-487.86 631.75,-489.63 635.13,-495.75"/>
<text text-anchor="middle" x="616.75" y="-508.7" font-family="Times,serif" font-size="14.00">2</text>
</g>
<!-- root//1//1//1//2//safe&#45;robot//1//1//1 -->
<g id="node11" class="node">
<title>root//1//1//1//2//safe&#45;robot//1//1//1</title>
<polygon fill="#e5e5e5" stroke="none" points="436.75,-356.25 436.75,-378.75 634,-378.75 634,-356.25 436.75,-356.25"/>
<polygon fill="none" stroke="black" points="436.75,-356.25 436.75,-378.75 634,-378.75 634,-356.25 436.75,-356.25"/>
<text text-anchor="start" x="439.75" y="-363.45" font-family="Times,serif" font-weight="bold" font-size="14.00">PostconditionPreconditionAction</text>
</g>
<!-- root//1//1//1//2//safe&#45;robot//1//1&#45;&gt;root//1//1//1//2//safe&#45;robot//1//1//1 -->
<g id="edge14" class="edge">
<title>root//1//1//1//2//safe&#45;robot//1//1&#45;&gt;root//1//1//1//2//safe&#45;robot//1//1//1</title>
<path fill="none" stroke="black" d="M540.73,-453.78C539.78,-438.63 537.97,-409.86 536.72,-389.96"/>
<polygon fill="black" stroke="black" points="540.23,-389.92 536.11,-380.16 533.24,-390.36 540.23,-389.92"/>
<text text-anchor="middle" x="541.75" y="-411.2" font-family="Times,serif" font-size="14.00">1</text>
</g>
<!-- root//1//1//1//2//safe&#45;robot//1//1//1//1 -->
<g id="node12" class="node">
<title>root//1//1//1//2//safe&#45;robot//1//1//1//1</title>
<polygon fill="#e5e5e5" stroke="none" points="468.25,-270 468.25,-292.5 554.5,-292.5 554.5,-270 468.25,-270"/>
<polygon fill="none" stroke="black" points="468.25,-270 468.25,-292.5 554.5,-292.5 554.5,-270 468.25,-270"/>
<text text-anchor="start" x="471.25" y="-277.2" font-family="Times,serif" font-weight="bold" font-size="14.00">FallbackNode</text>
</g>
<!-- root//1//1//1//2//safe&#45;robot//1//1//1&#45;&gt;root//1//1//1//2//safe&#45;robot//1//1//1//1 -->
<g id="edge11" class="edge">
<title>root//1//1//1//2//safe&#45;robot//1//1//1&#45;&gt;root//1//1//1//2//safe&#45;robot//1//1//1//1</title>
<path fill="none" stroke="black" d="M531.94,-356.49C529.26,-348.54 525.53,-337.11 522.62,-327 520.42,-319.31 518.22,-310.81 516.36,-303.3"/>
<polygon fill="black" stroke="black" points="519.8,-302.62 514.05,-293.72 513,-304.27 519.8,-302.62"/>
<text text-anchor="middle" x="525.75" y="-313.7" font-family="Times,serif" font-size="14.00">1</text>
</g>
<!-- root//1//1//1//2//safe&#45;robot//1//1//1//2 -->
<g id="node18" class="node">
<title>root//1//1//1//2//safe&#45;robot//1//1//1//2</title>
<polygon fill="#e5e5e5" stroke="none" points="572.12,-270 572.12,-292.5 744.62,-292.5 744.62,-270 572.12,-270"/>
<polygon fill="none" stroke="black" points="572.12,-270 572.12,-292.5 744.62,-292.5 744.62,-270 572.12,-270"/>
<text text-anchor="start" x="575.12" y="-277.2" font-family="Times,serif" font-weight="bold" font-size="14.00">MoveTowardsChargingArea</text>
</g>
<!-- root//1//1//1//2//safe&#45;robot//1//1//1&#45;&gt;root//1//1//1//2//safe&#45;robot//1//1//1//2 -->
<g id="edge13" class="edge">
<title>root//1//1//1//2//safe&#45;robot//1//1//1&#45;&gt;root//1//1//1//2//safe&#45;robot//1//1//1//2</title>
<path fill="none" stroke="black" d="M549.97,-356.5C570.75,-342.27 609.14,-315.97 634.21,-298.8"/>
<polygon fill="black" stroke="black" points="635.9,-301.89 642.17,-293.35 631.94,-296.11 635.9,-301.89"/>
<text text-anchor="middle" x="617.75" y="-313.7" font-family="Times,serif" font-size="14.00">2</text>
</g>
<!-- root//1//1//1//2//safe&#45;robot//1//1//1//1//1 -->
<g id="node13" class="node">
<title>root//1//1//1//2//safe&#45;robot//1//1//1//1//1</title>
<polygon fill="#e5e5e5" stroke="none" points="273.75,-195 273.75,-217.5 411,-217.5 411,-195 273.75,-195"/>
<polygon fill="none" stroke="black" points="273.75,-195 273.75,-217.5 411,-217.5 411,-195 273.75,-195"/>
<text text-anchor="start" x="276.75" y="-202.2" font-family="Times,serif" font-weight="bold" font-size="14.00">BatteryLevelIsAtLeast</text>
<polygon fill="none" stroke="black" points="273.75,-172.5 273.75,-195 411,-195 411,-172.5 273.75,-172.5"/>
<text text-anchor="start" x="276.75" y="-179.7" font-family="Times,serif" font-style="italic" font-size="14.00">threshold</text>
<text text-anchor="start" x="327.75" y="-179.7" font-family="Times,serif" font-size="14.00">=100.0</text>
</g>
<!-- root//1//1//1//2//safe&#45;robot//1//1//1//1&#45;&gt;root//1//1//1//2//safe&#45;robot//1//1//1//1//1 -->
<g id="edge4" class="edge">
<title>root//1//1//1//2//safe&#45;robot//1//1//1//1&#45;&gt;root//1//1//1//2//safe&#45;robot//1//1//1//1//1</title>
<path fill="none" stroke="black" d="M490.99,-270.09C467.46,-258.36 427.85,-238.61 395.43,-222.45"/>
<polygon fill="black" stroke="black" points="397.06,-219.35 386.55,-218.02 393.93,-225.61 397.06,-219.35"/>
<text text-anchor="middle" x="454.75" y="-238.7" font-family="Times,serif" font-size="14.00">1</text>
</g>
<!-- root//1//1//1//2//safe&#45;robot//1//1//1//1//2 -->
<g id="node14" class="node">
<title>root//1//1//1//2//safe&#45;robot//1//1//1//1//2</title>
<polygon fill="#e5e5e5" stroke="none" points="505.38,-183.75 505.38,-206.25 595.38,-206.25 595.38,-183.75 505.38,-183.75"/>
<polygon fill="none" stroke="black" points="505.38,-183.75 505.38,-206.25 595.38,-206.25 595.38,-183.75 505.38,-183.75"/>
<text text-anchor="start" x="508.38" y="-190.95" font-family="Times,serif" font-weight="bold" font-size="14.00">SequenceNode</text>
</g>
<!-- root//1//1//1//2//safe&#45;robot//1//1//1//1&#45;&gt;root//1//1//1//2//safe&#45;robot//1//1//1//1//2 -->
<g id="edge10" class="edge">
<title>root//1//1//1//2//safe&#45;robot//1//1//1//1&#45;&gt;root//1//1//1//2//safe&#45;robot//1//1//1//1//2</title>
<path fill="none" stroke="black" d="M516,-270.25C522.13,-257.02 533.07,-233.39 540.96,-216.33"/>
<polygon fill="black" stroke="black" points="543.97,-218.16 545,-207.62 537.62,-215.22 543.97,-218.16"/>
<text text-anchor="middle" x="534.75" y="-238.7" font-family="Times,serif" font-size="14.00">2</text>
</g>
<!-- root//1//1//1//2//safe&#45;robot//1//1//1//1//1&#45;&gt;root//1//1//1//2//__ContextProvider.Value.BatteryLevelContext -->
<g id="edge3" class="edge">
<title>root//1//1//1//2//safe&#45;robot//1//1//1//1//1&#45;&gt;root//1//1//1//2//__ContextProvider.Value.BatteryLevelContext</title>
<path fill="none" stroke="black" stroke-dasharray="5,2" d="M320.41,-217.38C283.56,-254.01 208.34,-332.19 157.38,-408 113.08,-473.88 74.57,-559.17 55.37,-604.64"/>
<polygon fill="black" stroke="black" points="52.23,-603.07 51.6,-613.65 58.69,-605.77 52.23,-603.07"/>
</g>
<!-- root//1//1//1//2//safe&#45;robot//1//1//1//1//2//1 -->
<g id="node15" class="node">
<title>root//1//1//1//2//safe&#45;robot//1//1//1//1//2//1</title>
<polygon fill="#e5e5e5" stroke="none" points="467.88,-86.25 467.88,-108.75 494.88,-108.75 494.88,-86.25 467.88,-86.25"/>
<polygon fill="none" stroke="black" points="467.88,-86.25 467.88,-108.75 494.88,-108.75 494.88,-86.25 467.88,-86.25"/>
<text text-anchor="start" x="470.88" y="-93.45" font-family="Times,serif" font-weight="bold" font-size="14.00">Not</text>
</g>
<!-- root//1//1//1//2//safe&#45;robot//1//1//1//1//2&#45;&gt;root//1//1//1//2//safe&#45;robot//1//1//1//1//2//1 -->
<g id="edge7" class="edge">
<title>root//1//1//1//2//safe&#45;robot//1//1//1//1//2&#45;&gt;root//1//1//1//2//safe&#45;robot//1//1//1//1//2//1</title>
<path fill="none" stroke="black" d="M542.99,-183.78C531.63,-168.06 509.67,-137.66 495.27,-117.73"/>
<polygon fill="black" stroke="black" points="498.29,-115.93 489.59,-109.87 492.61,-120.03 498.29,-115.93"/>
<text text-anchor="middle" x="522.75" y="-141.2" font-family="Times,serif" font-size="14.00">1</text>
</g>
<!-- root//1//1//1//2//safe&#45;robot//1//1//1//1//2//2 -->
<g id="node17" class="node">
<title>root//1//1//1//2//safe&#45;robot//1//1//1//1//2//2</title>
<polygon fill="#e5e5e5" stroke="none" points="551.75,-97.5 551.75,-120 689,-120 689,-97.5 551.75,-97.5"/>
<polygon fill="none" stroke="black" points="551.75,-97.5 551.75,-120 689,-120 689,-97.5 551.75,-97.5"/>
<text text-anchor="start" x="554.75" y="-104.7" font-family="Times,serif" font-weight="bold" font-size="14.00">BatteryLevelIsAtLeast</text>
<polygon fill="none" stroke="black" points="551.75,-75 551.75,-97.5 689,-97.5 689,-75 551.75,-75"/>
<text text-anchor="start" x="554.75" y="-82.2" font-family="Times,serif" font-style="italic" font-size="14.00">threshold</text>
<text text-anchor="start" x="605.75" y="-82.2" font-family="Times,serif" font-size="14.00">=20.0</text>
</g>
<!-- root//1//1//1//2//safe&#45;robot//1//1//1//1//2&#45;&gt;root//1//1//1//2//safe&#45;robot//1//1//1//1//2//2 -->
<g id="edge9" class="edge">
<title>root//1//1//1//2//safe&#45;robot//1//1//1//1//2&#45;&gt;root//1//1//1//2//safe&#45;robot//1//1//1//1//2//2</title>
<path fill="none" stroke="black" d="M557.87,-183.78C567.4,-170.77 584.29,-147.73 598.11,-128.87"/>
<polygon fill="black" stroke="black" points="600.82,-131.09 603.91,-120.96 595.18,-126.96 600.82,-131.09"/>
<text text-anchor="middle" x="592.75" y="-141.2" font-family="Times,serif" font-size="14.00">2</text>
</g>
<!-- root//1//1//1//2//safe&#45;robot//1//1//1//1//2//1//1 -->
<g id="node16" class="node">
<title>root//1//1//1//2//safe&#45;robot//1//1//1//1//2//1//1</title>
<polygon fill="#e5e5e5" stroke="none" points="430.38,0 430.38,-22.5 532.38,-22.5 532.38,0 430.38,0"/>
<polygon fill="none" stroke="black" points="430.38,0 430.38,-22.5 532.38,-22.5 532.38,0 430.38,0"/>
<text text-anchor="start" x="433.38" y="-7.2" font-family="Times,serif" font-weight="bold" font-size="14.00">InChargingArea</text>
</g>
<!-- root//1//1//1//2//safe&#45;robot//1//1//1//1//2//1&#45;&gt;root//1//1//1//2//safe&#45;robot//1//1//1//1//2//1//1 -->
<g id="edge6" class="edge">
<title>root//1//1//1//2//safe&#45;robot//1//1//1//1//2//1&#45;&gt;root//1//1//1//2//safe&#45;robot//1//1//1//1//2//1//1</title>
<path fill="none" stroke="black" d="M481.38,-86.5C481.38,-73.53 481.38,-50.53 481.38,-33.56"/>
<polygon fill="black" stroke="black" points="484.88,-34.01 481.38,-24.01 477.88,-34.01 484.88,-34.01"/>
<text text-anchor="middle" x="484.75" y="-43.7" font-family="Times,serif" font-size="14.00">1</text>
</g>
<!-- root//1//1//1//2//safe&#45;robot//1//1//1//1//2//1//1&#45;&gt;root//1//1//1//2//__ContextProvider.Value.PositionContext -->
<g id="edge5" class="edge">
<title>root//1//1//1//2//safe&#45;robot//1//1//1//1//2//1//1&#45;&gt;root//1//1//1//2//__ContextProvider.Value.PositionContext</title>
<path fill="none" stroke="black" stroke-dasharray="5,2" d="M477.39,-22.49C474.37,-32 471.63,-46.27 477.38,-57 484.18,-69.72 497.57,-62.28 504.38,-75 513.81,-92.63 508.99,-100.54 504.38,-120 491.13,-175.89 468,-182.29 446.38,-235.5 392.05,-369.16 345.93,-535.35 327.71,-604.26"/>
<polygon fill="black" stroke="black" points="324.37,-603.19 325.22,-613.75 331.15,-604.97 324.37,-603.19"/>
</g>
<!-- root//1//1//1//2//safe&#45;robot//1//1//1//1//2//2&#45;&gt;root//1//1//1//2//__ContextProvider.Value.BatteryLevelContext -->
<g id="edge8" class="edge">
<title>root//1//1//1//2//safe&#45;robot//1//1//1//1//2//2&#45;&gt;root//1//1//1//2//__ContextProvider.Value.BatteryLevelContext</title>
<path fill="none" stroke="black" stroke-dasharray="5,2" d="M551.76,-116.93C536.54,-122.51 520.92,-129.48 507.38,-138 453.22,-172.07 158.82,-504.21 68.64,-606.6"/>
<polygon fill="black" stroke="black" points="66.03,-604.28 62.05,-614.1 71.28,-608.9 66.03,-604.28"/>
</g>
<!-- root//1//1//1//2//safe&#45;robot//1//1//1//2//1 -->
<g id="node19" class="node">
<title>root//1//1//1//2//safe&#45;robot//1//1//1//2//1</title>
<polygon fill="#e5e5e5" stroke="none" points="614.88,-195 614.88,-217.5 701.88,-217.5 701.88,-195 614.88,-195"/>
<polygon fill="none" stroke="black" points="614.88,-195 614.88,-217.5 701.88,-217.5 701.88,-195 614.88,-195"/>
<text text-anchor="start" x="617.88" y="-202.2" font-family="Times,serif" font-weight="bold" font-size="14.00">CaptureValue</text>
<polygon fill="none" stroke="black" points="614.88,-172.5 614.88,-195 701.88,-195 701.88,-172.5 614.88,-172.5"/>
<text text-anchor="start" x="617.88" y="-179.7" font-family="Times,serif" font-style="italic" font-size="14.00">value</text>
<text text-anchor="start" x="647.12" y="-179.7" font-family="Times,serif" font-size="14.00">=&#45;1.0</text>
</g>
<!-- root//1//1//1//2//safe&#45;robot//1//1//1//2&#45;&gt;root//1//1//1//2//safe&#45;robot//1//1//1//2//1 -->
<g id="edge12" class="edge">
<title>root//1//1//1//2//safe&#45;robot//1//1//1//2&#45;&gt;root//1//1//1//2//safe&#45;robot//1//1//1//2//1</title>
<path fill="none" stroke="black" d="M658.38,-270.25C658.38,-260.01 658.38,-243.51 658.38,-228.66"/>
<polygon fill="black" stroke="black" points="661.88,-228.78 658.38,-218.78 654.88,-228.78 661.88,-228.78"/>
<text text-anchor="middle" x="661.75" y="-238.7" font-family="Times,serif" font-size="14.00">1</text>
</g>
<!-- root//1//1//1//2//safe&#45;robot//1//2&#45;&gt;root//1//1//1//2//__ContextProvider.Value.PositionContext -->
<g id="edge17" class="edge">
<title>root//1//1//1//2//safe&#45;robot//1//2&#45;&gt;root//1//1//1//2//__ContextProvider.Value.PositionContext</title>
<path fill="none" stroke="black" stroke-dasharray="5,2" d="M643.32,-481.7C636.65,-483.75 629.86,-485.74 623.38,-487.5 587.78,-497.14 576.31,-491.07 542.38,-505.5 500.18,-523.44 495.7,-538.91 456.38,-562.5 428.75,-579.07 397.15,-596.25 371.27,-609.88"/>
<polygon fill="black" stroke="black" points="369.86,-606.67 362.63,-614.41 373.11,-612.87 369.86,-606.67"/>
</g>
<!-- root//1//1//1//2//safe&#45;robot//1//2//1 -->
<g id="node21" class="node">
<title>root//1//1//1//2//safe&#45;robot//1//2//1</title>
<polygon fill="#e5e5e5" stroke="none" points="651.88,-367.5 651.88,-390 738.88,-390 738.88,-367.5 651.88,-367.5"/>
<polygon fill="none" stroke="black" points="651.88,-367.5 651.88,-390 738.88,-390 738.88,-367.5 651.88,-367.5"/>
<text text-anchor="start" x="654.88" y="-374.7" font-family="Times,serif" font-weight="bold" font-size="14.00">CaptureValue</text>
<polygon fill="none" stroke="black" points="651.88,-345 651.88,-367.5 738.88,-367.5 738.88,-345 651.88,-345"/>
<text text-anchor="start" x="654.88" y="-352.2" font-family="Times,serif" font-style="italic" font-size="14.00">value</text>
<text text-anchor="start" x="684.12" y="-352.2" font-family="Times,serif" font-size="14.00">=1.0</text>
</g>
<!-- root//1//1//1//2//safe&#45;robot//1//2&#45;&gt;root//1//1//1//2//safe&#45;robot//1//2//1 -->
<g id="edge16" class="edge">
<title>root//1//1//1//2//safe&#45;robot//1//2&#45;&gt;root//1//1//1//2//safe&#45;robot//1//2//1</title>
<path fill="none" stroke="black" d="M691.48,-442.81C692.12,-430.65 692.93,-415.13 693.65,-401.42"/>
<polygon fill="black" stroke="black" points="697.14,-401.65 694.17,-391.48 690.15,-401.28 697.14,-401.65"/>
<text text-anchor="middle" x="695.75" y="-411.2" font-family="Times,serif" font-size="14.00">1</text>
</g>
<!-- root//1//1//1//__CaptureRoot.Consumer&#45;&gt;root//1//1//1//2//safe&#45;robot//1//1//1//2//1 -->
<g id="edge22" class="edge">
<title>root//1//1//1//__CaptureRoot.Consumer&#45;&gt;root//1//1//1//2//safe&#45;robot//1//1//1//2//1</title>
<path fill="none" stroke="black" stroke-dasharray="5,2" d="M562.28,-723.91C580.35,-717.62 601.55,-708.09 617.38,-694.5 618.66,-693.4 745.88,-489.12 746.38,-487.5 774.64,-395.01 795.84,-356.9 753.38,-270 744.08,-250.98 727.28,-235.43 710.36,-223.58"/>
<polygon fill="black" stroke="black" points="712.53,-220.82 702.26,-218.22 708.66,-226.66 712.53,-220.82"/>
</g>
<!-- root//1//1//1//__CaptureRoot.Consumer&#45;&gt;root//1//1//1//2//safe&#45;robot//1//2//1 -->
<g id="edge23" class="edge">
<title>root//1//1//1//__CaptureRoot.Consumer&#45;&gt;root//1//1//1//2//safe&#45;robot//1//2//1</title>
<path fill="none" stroke="black" stroke-dasharray="5,2" d="M582.47,-727.02C606.68,-721.56 633.77,-711.83 653.38,-694.5 728.94,-627.7 725.24,-586.12 746.38,-487.5 750.57,-467.94 752.32,-461.6 746.38,-442.5 741.45,-426.68 731.83,-411.24 722.26,-398.6"/>
<polygon fill="black" stroke="black" points="725.27,-396.76 716.31,-391.11 719.79,-401.12 725.27,-396.76"/>
</g>
</g>
</svg>
